<?xml version="1.0" standalone="no"?><!DOCTYPE svg PUBLIC "-//W3C//DTD SVG 1.1//EN" "http://www.w3.org/Graphics/SVG/1.1/DTD/svg11.dtd"><svg t="1684419131214" class="icon" viewBox="0 0 1024 1024" version="1.1" xmlns="http://www.w3.org/2000/svg" p-id="4561" xmlns:xlink="http://www.w3.org/1999/xlink" width="48" height="48"><path d="M917.333333 426.666667c0 23.466667-19.2 42.666667-42.666666 42.666666H149.333333c-23.466667 0-42.666667-19.2-42.666666-42.666666V149.333333c0-14.933333 8.533333-29.866667 21.333333-36.266666s29.866667-8.533333 42.666667 0l170.666666 100.266666 140.8-136.533333c17.066667-14.933333 42.666667-14.933333 59.733334 0L682.666667 213.333333l170.666666-100.266666c12.8-8.533333 29.866667-8.533333 42.666667 0 12.8 8.533333 21.333333 21.333333 21.333333 36.266666v277.333334z m-85.333333-42.666667v-160l-134.4 78.933333c-17.066667 10.666667-38.4 6.4-51.2-6.4L512 166.4l-134.4 130.133333c-12.8 12.8-34.133333 14.933333-51.2 6.4L192 224V384h640zM398.933333 535.466667c-21.333333-8.533333-46.933333 4.266667-53.333333 25.6l-78.933333 224-76.8-224c-8.533333-21.333333-32-34.133333-53.333334-25.6-21.333333 8.533333-34.133333 32-25.6 53.333333l117.333334 341.333333c6.4 17.066667 21.333333 29.866667 40.533333 29.866667s34.133333-10.666667 40.533333-29.866667l117.333334-341.333333c6.4-21.333333-6.4-44.8-27.733334-53.333333M554.666667 576c0-23.466667-19.2-42.666667-42.666667-42.666667s-42.666667 19.2-42.666667 42.666667v341.333333c0 23.466667 19.2 42.666667 42.666667 42.666667s42.666667-19.2 42.666667-42.666667V576zM661.333333 960c-23.466667 0-42.666667-19.2-42.666666-42.666667V576c0-23.466667 19.2-42.666667 42.666666-42.666667h106.666667c83.2 0 149.333333 66.133333 149.333333 149.333334s-66.133333 149.333333-149.333333 149.333333h-64v85.333333c0 23.466667-19.2 42.666667-42.666667 42.666667z m42.666667-341.333333v128h64c36.266667 0 64-27.733333 64-64s-27.733333-64-64-64h-64z" fill="#bfbfbf" p-id="4562"></path></svg>